# xmcd
#
# Track frame offsets:
#	150
#	18227
#	31587
#	40973
#	52532
#	67974
#	90473
#	106979
#	127102
#	142428
#	155584
#	168053
#	178255
#	209823
#
# Disc length: 2995 seconds
#
# Revision: 1
# Processed by: cddbd v1.5.2PL0 Copyright (c) Steve Scherf et al.
# Submitted via: audiograbber 1.83.01
#
DISCID=bc0bb10e
DTITLE=The Beatles - The Beatles 1967-1970  [CD 1)
DYEAR=1993
DGENRE=Beat
TTITLE0=Strawberry Fields Forever
TTITLE1=Penny Lane
TTITLE2=Sgt. Pepper's Lonely Hearts Club Band
TTITLE3=With A Little Help From My Friends
TTITLE4=Lucy In The Sky With Diamonds
TTITLE5=A Day In The Life
TTITLE6=All You Need Is Love
TTITLE7=I Am The Walrus
TTITLE8=Hello Goodbye
TTITLE9=The Fool On The Hill
TTITLE10=Magical Mystery Tour
TTITLE11=Lady Madonna
TTITLE12=Hey Jude
TTITLE13=Revolution
EXTD=
EXTT0=
EXTT1=
EXTT2=
EXTT3=
EXTT4=
EXTT5=
EXTT6=
EXTT7=
EXTT8=
EXTT9=
EXTT10=
EXTT11=
EXTT12=
EXTT13=
PLAYORDER=
